<svg width="6079" height="4076" viewBox="0 0 6079 4076" fill="none" xmlns="http://www.w3.org/2000/svg">
<path d="M0.000211898 909.908V1639.18V2674.98V3183.11V3599.94L5705.21 2304.03L5529.65 2264.44L5705.21 2224.84L5258.31 2124.04L5441.36 2082.75L5256.44 2041.04L5670.49 1947.65L5500.1 1909.22L5670.49 1870.79L0 528.376L0.000211898 909.908Z" fill="url(#paint0_linear_12_455)" fill-opacity="0.98" id="thrust-gradient"/>
<path d="M5587.42 1739.47H5684.63L5728.9 1842.39H5778.12V1891.16H5749.87L5761.86 1919.03H5815.15V1967.8H5782.84L5809.81 2030.51H5921.62L6011.9 2037.72C6019.55 2038.33 6027.06 2040.15 6034.15 2043.11L6065.02 2056.02C6073.48 2059.56 6079 2067.86 6079 2077.06C6079 2085.56 6074.29 2093.36 6066.77 2097.28L6037.39 2112.64C6028.19 2117.45 6018.13 2120.35 6007.79 2121.17L5921.62 2128.05H5810.58L5782.83 2195.4H5815.15V2246.5H5761.78L5750.3 2274.37H5778.12V2325.46H5729.24L5684.63 2433.74H5587.42L5656.16 2128.05H5535.1L5489.68 2121.8L5446.14 2237.76L5389.25 2243.51L5406.57 2110.37L5351.66 2102.81C5340.72 2101.3 5332.58 2091.93 5332.58 2080.86C5332.58 2069.93 5340.52 2060.63 5351.29 2058.97L5399.99 2051.43L5359.65 1923.9H5418.89L5485.15 2038.24L5518.47 2033.08C5529.54 2031.37 5540.72 2030.51 5551.92 2030.51H5655.74L5587.42 1739.47Z" fill="#D0D0D0" id="plane"/>
<path d="M2499.65 1031.86L2577.82 1167.73H2421.47L2499.65 1031.86Z" fill="#DFF2FF" id="particle"/>
<path d="M3474.05 1187.47L3552.22 1323.33H3395.87L3474.05 1187.47Z" fill="#DFF2FF" id="particle"/>
<path d="M4094.33 1245.53L4172.5 1381.39H4016.16L4094.33 1245.53Z" fill="#DFF2FF" id="particle"/>
<path d="M4193.85 2539.12L4272.02 2674.98H4115.68L4193.85 2539.12Z" fill="#DFF2FF" id="particle"/>
<path d="M4936.8 2571.64L5014.97 2707.5H4858.63L4936.8 2571.64Z" fill="#DFF2FF" id="particle"/>
<path d="M4642.86 1503.32L4721.03 1639.18H4564.69L4642.86 1503.32Z" fill="#DFF2FF" id="particle"/>
<path d="M5154.36 2353.33L5232.53 2489.19H5076.19L5154.36 2353.33Z" fill="#DFF2FF" id="particle"/>
<path d="M2662.43 1046.78L2818.68 1041.41L2745.19 1179.88L2662.43 1046.78Z" fill="#DFF2FF" id="particle"/>
<path d="M2998.03 1202.38L3154.28 1197.01L3080.79 1335.48L2998.03 1202.38Z" fill="#DFF2FF" id="particle"/>
<path d="M2277.32 830.292L2412.04 909.908L2275.97 987.166L2277.32 830.292Z" fill="#DFF2FF" id="particle"/>
<path d="M3788.54 2630.87L3884.28 2754.9L3729.37 2776.08L3788.54 2630.87Z" fill="#DFF2FF" id="particle"/>
<path d="M981.211 49.9548L1115.92 129.571L979.854 206.829L981.211 49.9548Z" fill="#DFF2FF" id="particle"/>
<path d="M3987.59 2887.04L4142.25 2864.06L4084.75 3009.95L3987.59 2887.04Z" fill="#DFF2FF" id="particle"/>
<path d="M3429.94 2764.88L3564.65 2844.49L3428.58 2921.75L3429.94 2764.88Z" fill="#DFF2FF" id="particle"/>
<path d="M2999.44 988.217L3134.16 1067.83L2998.09 1145.09L2999.44 988.217Z" fill="#DFF2FF" id="particle"/>
<path d="M1985.83 727.626L2064 863.488H1907.66L1985.83 727.626Z" fill="#DFF2FF" id="particle"/>
<path d="M1814.43 3919.13L1949.14 3998.74L1813.07 4076L1814.43 3919.13Z" fill="#DFF2FF" id="particle"/>
<path d="M2025.04 3672.95L2159.76 3752.56L2023.69 3829.82L2025.04 3672.95Z" fill="#DFF2FF" id="particle"/>
<path d="M1522.93 3816.46L1601.1 3952.32H1444.76L1522.93 3816.46Z" fill="#DFF2FF" id="particle"/>
<path d="M291.493 3378L426.208 3457.62L290.137 3534.87L291.493 3378Z" fill="#DFF2FF" id="particle"/>
<path d="M502.112 3131.82L636.826 3211.44L500.755 3288.7L502.112 3131.82Z" fill="#DFF2FF" id="particle"/>
<path d="M0.000211898 3275.33L78.172 3411.2H0.000211898V3275.33Z" fill="#DFF2FF" id="particle"/>
<path d="M2457.56 3474.94L2612.68 3455.34L2552.03 3599.94L2457.56 3474.94Z" fill="#DFF2FF" id="particle"/>
<path d="M1092.31 3345.48L1227.02 3425.1L1090.95 3502.36L1092.31 3345.48Z" fill="#DFF2FF" id="particle"/>
<path d="M1302.92 3099.31L1437.64 3178.92L1301.57 3256.18L1302.92 3099.31Z" fill="#DFF2FF" id="particle"/>
<path d="M800.813 3242.82L878.985 3378.68H722.641L800.813 3242.82Z" fill="#DFF2FF" id="particle"/>
<path d="M669.971 3818.29L719.254 3967.18L566.118 3935.56L669.971 3818.29Z" fill="#DFF2FF" id="particle"/>
<path d="M989.986 3771.87L1039.27 3920.76L886.133 3889.14L989.986 3771.87Z" fill="#DFF2FF" id="particle"/>
<path d="M517.707 3548.57L487.53 3702.5L369.767 3599.31L517.707 3548.57Z" fill="#DFF2FF" id="particle"/>
<path d="M1579.75 3550.4L1735.75 3539.94L1666.79 3680.73L1579.75 3550.4Z" fill="#DFF2FF" id="particle"/>
<path d="M1615.36 3227.92L1771.36 3217.46L1702.39 3358.25L1615.36 3227.92Z" fill="#DFF2FF" id="particle"/>
<path d="M1281.33 3630.54L1422.23 3698.51L1293.11 3786.97L1281.33 3630.54Z" fill="#DFF2FF" id="particle"/>
<path d="M2134.2 3305.16L2217.61 3437.84L2061.39 3443.99L2134.2 3305.16Z" fill="#DFF2FF" id="particle"/>
<path d="M2433.79 3183.11L2517.21 3315.8L2360.98 3321.94L2433.79 3183.11Z" fill="#DFF2FF" id="particle"/>
<path d="M1921.93 3079.93L1929.41 3236.63L1790.43 3164.78L1921.93 3079.93Z" fill="#DFF2FF" id="particle"/>
<path d="M2825.86 3011.05L2960.57 3090.67L2824.5 3167.93L2825.86 3011.05Z" fill="#DFF2FF" id="particle"/>
<path d="M3036.48 2764.88L3171.19 2844.49L3035.12 2921.75L3036.48 2764.88Z" fill="#DFF2FF" id="particle"/>
<path d="M2534.36 2908.39L2612.54 3044.25H2456.19L2534.36 2908.39Z" fill="#DFF2FF" id="particle"/>
<path d="M1790.43 367.907L1868.6 503.769H1712.26L1790.43 367.907Z" fill="#DFF2FF" id="particle"/>
<path d="M1897.75 1199.56L2032.46 1279.17L1896.39 1356.43L1897.75 1199.56Z" fill="#DFF2FF" id="particle"/>
<path d="M2108.37 953.381L2243.08 1033L2107.01 1110.25L2108.37 953.381Z" fill="#DFF2FF" id="particle"/>
<path d="M1606.25 1096.89L1684.43 1232.75H1528.08L1606.25 1096.89Z" fill="#DFF2FF" id="particle"/>
<path d="M710.548 358.359L788.72 494.222H632.376L710.548 358.359Z" fill="#DFF2FF" id="particle"/>
<path d="M286.997 358.359L365.168 494.222H208.825L286.997 358.359Z" fill="#DFF2FF" id="particle"/>
<path d="M875.646 373.275L1031.9 367.907L958.406 506.374L875.646 373.275Z" fill="#DFF2FF" id="particle"/>
<path d="M488.225 156.787L622.939 236.403L486.868 313.661L488.225 156.787Z" fill="#DFF2FF" id="particle"/>
<path d="M697.486 0H830.116L697.486 67.4832V0Z" fill="#DFF2FF" id="particle"/>
<path d="M1210.34 314.712L1345.06 394.328L1208.99 471.586L1210.34 314.712Z" fill="#DFF2FF" id="particle"/>
<path d="M196.732 54.1209L274.903 189.983H118.56L196.732 54.1209Z" fill="#DFF2FF" id="particle"/>
<path d="M1174.22 586.939L1330.47 581.57L1256.97 720.037L1174.22 586.939Z" fill="#DFF2FF" id="particle"/>
<path d="M1509.82 742.542L1666.07 737.173L1592.58 875.64L1509.82 742.542Z" fill="#DFF2FF" id="particle"/>
<path d="M1511.23 528.376L1645.94 607.992L1509.87 685.25L1511.23 528.376Z" fill="#DFF2FF" id="particle"/>
<path d="M1263.71 815.878L1341.88 951.741H1185.54L1263.71 815.878Z" fill="#DFF2FF" id="particle"/>
<path d="M452.095 675.191L608.347 669.823L534.855 808.29L452.095 675.191Z" fill="#DFF2FF" id="particle"/>
<path d="M787.696 830.794L943.948 825.426L870.455 963.893L787.696 830.794Z" fill="#DFF2FF" id="particle"/>
<path d="M789.108 616.628L923.822 696.244L787.751 773.502L789.108 616.628Z" fill="#DFF2FF" id="particle"/>
<path d="M4240.01 1482.9L4374.72 1562.51L4238.65 1639.77L4240.01 1482.9Z" fill="#DFF2FF" id="particle"/>
<path d="M3721.56 1324.97L3856.28 1404.59L3720.21 1481.84L3721.56 1324.97Z" fill="#DFF2FF" id="particle"/>
<path d="M4837.15 1571.15L4971.86 1650.76L4835.79 1728.02L4837.15 1571.15Z" fill="#DFF2FF" id="particle"/>
<path d="M4543.21 2460.64L4677.92 2540.25L4541.85 2617.51L4543.21 2460.64Z" fill="#DFF2FF" id="particle"/>
<defs>
<linearGradient id="paint0_linear_12_455" x1="5392.27" y1="2039.5" x2="614.153" y2="2039.5" gradientUnits="userSpaceOnUse">
<stop stop-color="white"/>
<stop offset="0.529442" stop-color="white"/>
<stop offset="1" stop-color="white"/>
</linearGradient>
</defs>
</svg>
