<svg width="7803" height="2112" viewBox="0 0 7803 2112" fill="none" xmlns="http://www.w3.org/2000/svg">
<path fill-rule="evenodd" clip-rule="evenodd" d="M4590.79 0H0V2111.76H4590.79L6992 1671.84L5685.31 1432.44L7539.39 1055.88L5591.13 660.184L6992 416.94L4590.79 0Z" fill="url(#paint0_linear_28_65)" id="transition-right-thrust-gradient"/>
<path fill-rule="evenodd" clip-rule="evenodd" d="M7541.26 650.057H7448.82L7491.25 803.25C7546.06 806.208 7584.69 813.33 7584.69 821.646C7584.69 829.445 7550.72 836.194 7501.28 839.442L7542.12 986.895L7546.21 988.313C7562.33 993.9 7575.39 1005.01 7583.57 1019.09H7651.7L7786.73 1037.58C7796.05 1038.86 7803 1046.82 7803 1056.24C7803 1065.8 7795.82 1073.85 7786.32 1074.94L7651.7 1090.39H7582.71C7574.96 1103.01 7563.22 1113.12 7548.8 1118.76L7542.5 1121.23L7501.4 1269.62C7550.77 1272.87 7584.69 1279.61 7584.69 1287.41C7584.69 1295.72 7546.12 1302.83 7491.38 1305.8L7469.04 1386.42H7541.26V1459.42H7448.82H7349.6H7281.66V1386.42H7344.4L7338.43 1302.65C7305.48 1299.01 7284.52 1293.53 7284.52 1287.41C7284.52 1281.42 7304.57 1276.04 7336.28 1272.4L7326.31 1132.47C7314.32 1131.1 7302.63 1127.58 7291.84 1122.02L7261.01 1106.16C7253.47 1102.28 7247.04 1096.85 7242.03 1090.39H7207.44L7166.2 1239.26H7120.96L7110.24 1088.78L7109.72 1088.54C7107.41 1087.77 7105.21 1086.76 7103.13 1085.55L7076.5 1073.46V1039.38L7097.64 1027.88C7101.27 1024.71 7105.54 1022.27 7110.24 1020.77L7120.96 870.222H7166.2L7207.44 1019.09H7243.2C7247.79 1013.55 7253.47 1008.84 7260.02 1005.3L7291.15 988.508C7302.1 982.603 7314.02 978.809 7326.29 977.283L7336.31 836.653C7304.58 833.012 7284.52 827.639 7284.52 821.646C7284.52 815.518 7305.49 810.038 7338.46 806.395L7349.6 650.057H7281.66V577.057H7541.26V650.057Z" fill="#EDEDED" id="transition-right-plane"/>
<ellipse cx="7530.83" cy="1054.74" rx="91.0092" ry="21.2164" fill="#0057FF" id="transition-right-plane"/>
<path fill-rule="evenodd" clip-rule="evenodd" d="M7146.27 1403.88H7082.79L7111.93 1509.1C7149.57 1511.13 7176.1 1516.02 7176.1 1521.73C7176.1 1527.09 7152.77 1531.72 7118.81 1533.95L7146.86 1635.22L7149.67 1636.2C7160.74 1640.03 7169.72 1647.67 7175.33 1657.34H7222.12L7314.86 1670.04C7321.26 1670.91 7326.03 1676.38 7326.03 1682.85C7326.03 1689.42 7321.1 1694.94 7314.58 1695.69L7222.12 1706.3H7174.74C7169.42 1714.97 7161.35 1721.91 7151.45 1725.79L7147.12 1727.49L7118.89 1829.4C7152.8 1831.63 7176.1 1836.26 7176.1 1841.61C7176.1 1847.32 7149.61 1852.21 7112.01 1854.24L7103.01 1886.75H7146.27V1959.75H7082.79H7014.64H6967.98V1886.75H7009.44L7006.97 1852.09C6984.34 1849.58 6969.94 1845.82 6969.94 1841.61C6969.94 1837.5 6983.71 1833.81 7005.49 1831.31L6998.63 1735.05C6989.89 1733.95 6981.38 1731.33 6973.51 1727.27L6953.79 1717.13C6948.62 1714.47 6944.2 1710.74 6940.76 1706.3H6917L6888.68 1808.55H6857.61L6850.25 1705.2L6849.89 1705.03C6848.31 1704.5 6846.79 1703.81 6845.37 1702.98L6827.08 1694.67V1671.27L6841.59 1663.37C6844.08 1661.2 6847.02 1659.52 6850.25 1658.49L6857.61 1555.09H6888.68L6917 1657.34H6941.56C6944.72 1653.53 6948.62 1650.29 6953.12 1647.86L6972.75 1637.27C6980.83 1632.92 6989.59 1630.06 6998.62 1628.82L7005.51 1532.04C6983.72 1529.54 6969.94 1525.85 6969.94 1521.73C6969.94 1517.52 6984.35 1513.76 7006.99 1511.26L7014.64 1403.88H6967.98V1330.88H7146.27V1403.88Z" fill="#EDEDED" id="transition-right-plane"/>
<ellipse cx="7139.11" cy="1681.82" rx="62.5047" ry="14.5714" fill="#0057FF" id="transition-right-plane"/>
<path fill-rule="evenodd" clip-rule="evenodd" d="M7146.27 131.197H7082.79L7111.93 236.409C7149.57 238.441 7176.1 243.332 7176.1 249.043C7176.1 254.4 7152.77 259.035 7118.81 261.266L7146.86 362.536L7149.67 363.51C7160.74 367.347 7169.72 374.98 7175.33 384.65H7222.12L7314.86 397.348C7321.26 398.225 7326.03 403.696 7326.03 410.16C7326.03 416.731 7321.1 422.257 7314.58 423.006L7222.12 433.614H7174.74C7169.42 442.282 7161.35 449.225 7151.45 453.102L7147.12 454.798L7118.89 556.709C7152.8 558.942 7176.1 563.574 7176.1 568.926C7176.1 574.633 7149.61 579.522 7112.01 581.556L7103.01 614.067H7146.27V687.067H7082.79H7014.64H6967.98V614.067H7009.44L7006.97 579.398C6984.34 576.896 6969.94 573.134 6969.94 568.926C6969.94 564.812 6983.71 561.122 7005.49 558.622L6998.63 462.364C6989.89 461.265 6981.38 458.641 6973.51 454.587L6953.79 444.444C6948.62 441.779 6944.2 438.055 6940.76 433.614H6917L6888.68 535.859H6857.61L6850.25 432.509L6849.89 432.347C6848.31 431.814 6846.79 431.122 6845.37 430.291L6827.08 421.986V398.584L6841.59 390.685C6844.08 388.509 6847.02 386.83 6850.25 385.802L6857.61 282.405H6888.68L6917 384.65H6941.56C6944.72 380.841 6948.62 377.605 6953.12 375.177L6972.75 364.585C6980.83 360.231 6989.59 357.377 6998.62 356.129L7005.51 259.351C6983.72 256.85 6969.94 253.16 6969.94 249.043C6969.94 244.835 6984.35 241.072 7006.99 238.57L7014.64 131.197H6967.98V58.197H7146.27V131.197Z" fill="#EDEDED" id="transition-right-plane"/>
<ellipse cx="7139.11" cy="409.132" rx="62.5047" ry="14.5714" fill="#0057FF" id="transition-right-plane"/>
<defs>
<linearGradient id="paint0_linear_28_65" x1="0" y1="1055.88" x2="7388.93" y2="1055.88" gradientUnits="userSpaceOnUse">
<stop stop-color="#04097D"/>
<stop offset="0.51" stop-color="#0057FF"/>
<stop offset="1" stop-color="#0094FF"/>
</linearGradient>
</defs>
</svg>
